<svg width="34" height="25" viewBox="0 0 34 25" fill="none" xmlns="http://www.w3.org/2000/svg">
    <g clip-path="url(#clip0_319_1713)">
        <mask id="mask0_319_1713" style="mask-type:luminance" maskUnits="userSpaceOnUse" x="0" y="0" width="31.8" height="32">
            <path d="M33.7394 0.93457H0.0466309V33.1382H33.7394V0.93457Z" fill="white"/>
        </mask>
        <g mask="url(#mask0_319_1713)">
            <path d="M23.1751 17.5533C23.1541 14.9315 21.5041 12.5613 19.057 11.6524C16.5959 10.7365 13.7084 11.5126 12.0444 13.5472C11.1284 14.6659 10.6181 16.0921 10.6111 17.5533V17.868H11.8067V17.5533C11.8067 16.6165 12.0584 15.7076 12.5268 14.9245C13.6175 13.1136 15.8268 12.1419 17.8894 12.5613C20.2455 13.0367 21.9656 15.1413 21.9865 17.5603V17.868H23.182L23.1751 17.5533Z" fill="black"/>
            <path d="M16.8895 9.24067C16.1065 9.24067 15.4702 8.60442 15.4702 7.82136V2.35388C15.4702 1.57081 16.1065 0.93457 16.8895 0.93457C17.6726 0.93457 18.3088 1.57081 18.3088 2.35388V7.82136C18.3158 8.60442 17.6726 9.24067 16.8895 9.24067ZM16.8895 1.89942C16.6378 1.89942 16.4351 2.10218 16.4351 2.35388V7.82136C16.4351 8.07306 16.6378 8.27581 16.8895 8.27581C17.1413 8.27581 17.344 8.07306 17.344 7.82136V2.35388C17.344 2.10218 17.1413 1.89942 16.8895 1.89942Z" fill="black"/>
            <path d="M9.98184 11.3031C9.60432 11.3031 9.24768 11.1563 8.97502 10.8906L5.11563 7.02426C4.84996 6.75857 4.70312 6.402 4.70312 6.01745C4.70312 5.6399 4.84996 5.28333 5.11563 5.01065C5.38132 4.74497 5.7379 4.59814 6.12243 4.59814C6.49999 4.59814 6.85656 4.74497 7.12924 5.01065L10.9957 8.87705C11.2613 9.14272 11.4081 9.4993 11.4081 9.88382C11.4081 10.2684 11.2613 10.618 10.9957 10.8906C10.7229 11.1563 10.3664 11.3031 9.98184 11.3031ZM6.12243 5.56999C6.00358 5.56999 5.88472 5.61893 5.80082 5.70283C5.71692 5.78673 5.66798 5.89859 5.66798 6.02445C5.66798 6.14331 5.71692 6.26217 5.80082 6.34606L9.66724 10.2124C9.75113 10.2964 9.86299 10.3453 9.98884 10.3453C10.1077 10.3453 10.2265 10.2964 10.3104 10.2124C10.3943 10.1285 10.4433 10.0167 10.4433 9.89081C10.4433 9.77196 10.3943 9.65311 10.3104 9.56922L6.43706 5.70283C6.35316 5.61893 6.24129 5.56999 6.12243 5.56999Z" fill="black"/>
            <path d="M6.93342 17.8684H1.46594C0.682872 17.8684 0.0466309 17.2321 0.0466309 16.4491C0.0466309 15.666 0.682872 15.0298 1.46594 15.0298H6.93342C7.71648 15.0298 8.35273 15.666 8.35273 16.4491C8.35273 17.2321 7.71648 17.8684 6.93342 17.8684ZM1.46594 15.9947C1.21424 15.9947 1.01148 16.1974 1.01148 16.4491C1.01148 16.7008 1.21424 16.9035 1.46594 16.9035H6.93342C7.18512 16.9035 7.38787 16.7008 7.38787 16.4491C7.38787 16.1974 7.18512 15.9947 6.93342 15.9947H1.46594Z" fill="black"/>
            <path d="M32.3203 17.8684H26.8529C26.0698 17.8684 25.4336 17.2321 25.4336 16.4491C25.4336 15.666 26.0698 15.0298 26.8529 15.0298H32.3203C33.1034 15.0298 33.7396 15.666 33.7396 16.4491C33.7396 17.2321 33.1034 17.8684 32.3203 17.8684ZM26.8529 15.9947C26.6011 15.9947 26.3984 16.1974 26.3984 16.4491C26.3984 16.7008 26.6011 16.9035 26.8529 16.9035H32.3203C32.572 16.9035 32.7748 16.7008 32.7748 16.4491C32.7748 16.1974 32.572 15.9947 32.3203 15.9947H26.8529Z" fill="black"/>
            <path d="M23.7972 10.947C23.4197 10.947 23.0632 10.8002 22.7904 10.5345C22.5247 10.2688 22.3779 9.91219 22.3779 9.52767C22.3779 9.15012 22.5247 8.79355 22.7904 8.52088L26.6568 4.65449C27.2091 4.10215 28.1111 4.10215 28.6634 4.65449C29.2158 5.20683 29.2158 6.10875 28.6634 6.66109L24.7971 10.5275C24.5384 10.7932 24.1818 10.947 23.7972 10.947ZM27.6637 5.20683C27.5448 5.20683 27.4329 5.24878 27.3421 5.33967L23.4756 9.20606C23.3009 9.38085 23.3009 9.66749 23.4756 9.84228C23.5595 9.92617 23.6714 9.97511 23.7972 9.97511C23.9161 9.97511 24.0349 9.92617 24.1188 9.84228L27.9853 5.97592C28.16 5.80112 28.16 5.51446 27.9853 5.33967C27.8944 5.24878 27.7825 5.20683 27.6637 5.20683Z" fill="black"/>
            <path d="M16.8896 15.3584L13.3728 19.2667L14.114 19.9589L16.3862 17.3859V24.042H16.8896H17.4V17.3859L19.6653 19.9589L20.4134 19.2667L16.8896 15.3584Z" fill="black"/>
        </g>
    </g>
    <defs>
        <clipPath id="clip0_319_1713">
            <rect width="33.4783" height="23.1304" fill="white" transform="translate(0.260986 0.93457)"/>
        </clipPath>
    </defs>
</svg>
