<svg width="60" height="64" viewBox="0 0 60 64" fill="none" xmlns="http://www.w3.org/2000/svg">
<g clip-path="url(#clip0_319_1712)">
<mask id="mask0_319_1712" style="mask-type:luminance" maskUnits="userSpaceOnUse" x="13" y="10" width="34" height="34">
<path d="M46.7394 10.9346H13.0466V43.1382H46.7394V10.9346Z" fill="white"/>
</mask>
<g mask="url(#mask0_319_1712)">
<path d="M36.1751 27.5533C36.1541 24.9315 34.5041 22.5613 32.057 21.6524C29.5959 20.7365 26.7084 21.5126 25.0444 23.5472C24.1284 24.6659 23.6181 26.0921 23.6111 27.5533V27.868H24.8067V27.5533C24.8067 26.6165 25.0584 25.7076 25.5268 24.9245C26.6175 23.1136 28.8268 22.1419 30.8894 22.5613C33.2455 23.0367 34.9656 25.1413 34.9865 27.5603V27.868H36.182L36.1751 27.5533Z" fill="white"/>
<path d="M29.8895 19.2407C29.1065 19.2407 28.4702 18.6044 28.4702 17.8214V12.3539C28.4702 11.5708 29.1065 10.9346 29.8895 10.9346C30.6726 10.9346 31.3088 11.5708 31.3088 12.3539V17.8214C31.3158 18.6044 30.6726 19.2407 29.8895 19.2407ZM29.8895 11.8994C29.6378 11.8994 29.4351 12.1022 29.4351 12.3539V17.8214C29.4351 18.0731 29.6378 18.2758 29.8895 18.2758C30.1413 18.2758 30.344 18.0731 30.344 17.8214V12.3539C30.344 12.1022 30.1413 11.8994 29.8895 11.8994Z" fill="white"/>
<path d="M22.9818 21.3031C22.6043 21.3031 22.2477 21.1563 21.975 20.8906L18.1156 17.0243C17.85 16.7586 17.7031 16.402 17.7031 16.0175C17.7031 15.6399 17.85 15.2833 18.1156 15.0107C18.3813 14.745 18.7379 14.5981 19.1224 14.5981C19.5 14.5981 19.8566 14.745 20.1292 15.0107L23.9957 18.877C24.2613 19.1427 24.4081 19.4993 24.4081 19.8838C24.4081 20.2684 24.2613 20.618 23.9957 20.8906C23.7229 21.1563 23.3664 21.3031 22.9818 21.3031ZM19.1224 15.57C19.0036 15.57 18.8847 15.6189 18.8008 15.7028C18.7169 15.7867 18.668 15.8986 18.668 16.0244C18.668 16.1433 18.7169 16.2622 18.8008 16.3461L22.6672 20.2124C22.7511 20.2964 22.863 20.3453 22.9888 20.3453C23.1077 20.3453 23.2265 20.2964 23.3104 20.2124C23.3943 20.1285 23.4433 20.0167 23.4433 19.8908C23.4433 19.772 23.3943 19.6531 23.3104 19.5692L19.4371 15.7028C19.3532 15.6189 19.2413 15.57 19.1224 15.57Z" fill="white"/>
<path d="M19.9334 27.8684H14.4659C13.6829 27.8684 13.0466 27.2321 13.0466 26.4491C13.0466 25.666 13.6829 25.0298 14.4659 25.0298H19.9334C20.7165 25.0298 21.3527 25.666 21.3527 26.4491C21.3527 27.2321 20.7165 27.8684 19.9334 27.8684ZM14.4659 25.9947C14.2142 25.9947 14.0115 26.1974 14.0115 26.4491C14.0115 26.7008 14.2142 26.9035 14.4659 26.9035H19.9334C20.1851 26.9035 20.3879 26.7008 20.3879 26.4491C20.3879 26.1974 20.1851 25.9947 19.9334 25.9947H14.4659Z" fill="white"/>
<path d="M45.3203 27.8684H39.8529C39.0698 27.8684 38.4336 27.2321 38.4336 26.4491C38.4336 25.666 39.0698 25.0298 39.8529 25.0298H45.3203C46.1034 25.0298 46.7396 25.666 46.7396 26.4491C46.7396 27.2321 46.1034 27.8684 45.3203 27.8684ZM39.8529 25.9947C39.6011 25.9947 39.3984 26.1974 39.3984 26.4491C39.3984 26.7008 39.6011 26.9035 39.8529 26.9035H45.3203C45.572 26.9035 45.7748 26.7008 45.7748 26.4491C45.7748 26.1974 45.572 25.9947 45.3203 25.9947H39.8529Z" fill="white"/>
<path d="M36.7972 20.947C36.4197 20.947 36.0632 20.8002 35.7904 20.5345C35.5247 20.2688 35.3779 19.9122 35.3779 19.5277C35.3779 19.1501 35.5247 18.7936 35.7904 18.5209L39.6568 14.6545C40.2091 14.1021 41.1111 14.1021 41.6634 14.6545C42.2158 15.2068 42.2158 16.1087 41.6634 16.6611L37.7971 20.5275C37.5384 20.7932 37.1818 20.947 36.7972 20.947ZM40.6637 15.2068C40.5448 15.2068 40.4329 15.2488 40.3421 15.3397L36.4756 19.2061C36.3009 19.3809 36.3009 19.6675 36.4756 19.8423C36.5595 19.9262 36.6714 19.9751 36.7972 19.9751C36.9161 19.9751 37.0349 19.9262 37.1188 19.8423L40.9853 15.9759C41.16 15.8011 41.16 15.5145 40.9853 15.3397C40.8944 15.2488 40.7825 15.2068 40.6637 15.2068Z" fill="white"/>
<path d="M29.8896 25.3584L26.3728 29.2667L27.114 29.9589L29.3862 27.3859V34.042H29.8896H30.4V27.3859L32.6653 29.9589L33.4134 29.2667L29.8896 25.3584Z" fill="white"/>
</g>
</g>
<path d="M5.28835 46.319C5.28835 46.0073 5.17148 45.7541 4.93774 45.5593C4.71374 45.3646 4.42643 45.1893 4.07583 45.0334C3.73496 44.8679 3.36 44.7023 2.95096 44.5367C2.55165 44.3614 2.1767 44.152 1.82609 43.9086C1.48522 43.6553 1.19791 43.3437 0.964174 42.9736C0.740174 42.6035 0.628174 42.1312 0.628174 41.5566C0.628174 41.0599 0.710957 40.6313 0.876522 40.271C1.04209 39.9009 1.27583 39.5941 1.57774 39.3506C1.88939 39.1072 2.25461 38.927 2.67339 38.8101C3.09217 38.6933 3.55965 38.6348 4.07583 38.6348C4.66991 38.6348 5.22991 38.6884 5.75583 38.7955C6.28174 38.8929 6.71513 39.039 7.056 39.2338L6.42783 40.9138C6.21357 40.7774 5.89217 40.6557 5.46365 40.5486C5.03513 40.4317 4.57252 40.3733 4.07583 40.3733C3.60835 40.3733 3.248 40.4658 2.99478 40.6508C2.7513 40.8359 2.62957 41.0842 2.62957 41.3959C2.62957 41.688 2.74157 41.9315 2.96557 42.1263C3.1993 42.3211 3.48661 42.5013 3.82748 42.6668C4.17809 42.8324 4.55304 43.0028 4.95235 43.1781C5.36139 43.3534 5.73635 43.5677 6.07722 43.8209C6.42783 44.0644 6.71513 44.3712 6.93913 44.7413C7.17287 45.1016 7.28974 45.5545 7.28974 46.0999C7.28974 46.6453 7.19722 47.1176 7.01217 47.5169C6.83687 47.9065 6.58365 48.2327 6.25252 48.4957C5.93113 48.7586 5.5367 48.9534 5.06922 49.08C4.61148 49.2066 4.10504 49.27 3.54991 49.27C2.81948 49.27 2.1767 49.2018 1.62157 49.0654C1.06643 48.9291 0.657391 48.7927 0.394435 48.6564L1.03722 46.9472C1.14435 47.0056 1.2807 47.0689 1.44626 47.1371C1.62157 47.2053 1.81635 47.2686 2.03061 47.327C2.24487 47.3854 2.46887 47.4341 2.70261 47.4731C2.94609 47.512 3.19443 47.5315 3.44765 47.5315C4.04174 47.5315 4.49461 47.4341 4.80626 47.2393C5.12765 47.0348 5.28835 46.728 5.28835 46.319ZM10.7195 46.6112C10.7195 46.952 10.7633 47.2004 10.851 47.3562C10.9386 47.512 11.0798 47.59 11.2746 47.59C11.3915 47.59 11.5035 47.5802 11.6106 47.5607C11.7275 47.5413 11.8687 47.4974 12.0343 47.4293L12.2388 48.9193C12.083 48.9973 11.8443 49.0752 11.523 49.1531C11.2016 49.231 10.8704 49.27 10.5296 49.27C9.97443 49.27 9.55078 49.1433 9.2586 48.8901C8.96643 48.6272 8.82034 48.1986 8.82034 47.6046V38.8393H10.7195V46.6112ZM17.3875 49.0654V45.0919C17.3875 44.4199 17.3242 43.9426 17.1976 43.6602C17.071 43.3778 16.8081 43.2366 16.4088 43.2366C16.0776 43.2366 15.8098 43.3291 15.6053 43.5141C15.4008 43.6894 15.2449 43.9183 15.1378 44.2007V49.0654H13.2387V41.7611H14.7142L14.9333 42.7253H14.9917C15.2157 42.4136 15.4982 42.1409 15.839 41.9072C16.1896 41.6734 16.6376 41.5566 17.183 41.5566C17.6505 41.5566 18.0303 41.654 18.3225 41.8487C18.6244 42.0338 18.8582 42.3503 19.0237 42.7983C19.2477 42.4185 19.535 42.1166 19.8856 41.8926C20.2362 41.6686 20.6599 41.5566 21.1566 41.5566C21.5656 41.5566 21.9114 41.6053 22.1938 41.7026C22.486 41.8 22.7197 41.9705 22.895 42.214C23.0801 42.4477 23.2164 42.7642 23.3041 43.1635C23.3917 43.5628 23.4355 44.0693 23.4355 44.6828V49.0654H21.5364V44.9604C21.5364 44.3858 21.4731 43.9573 21.3465 43.6748C21.2296 43.3826 20.9618 43.2366 20.543 43.2366C20.2022 43.2366 19.9295 43.3291 19.7249 43.5141C19.5302 43.6992 19.3841 43.9524 19.2867 44.2738V49.0654H17.3875ZM24.7385 47.2832L29.0626 41.2352L29.8223 40.6216H24.7385V38.8393H31.8237V40.6216L27.4703 46.728L26.7252 47.2832H31.8237V49.0654H24.7385V47.2832ZM32.3273 45.4133C32.3273 44.1764 32.6292 43.2268 33.2331 42.5646C33.8369 41.8926 34.6842 41.5566 35.775 41.5566C36.3593 41.5566 36.8658 41.6491 37.2943 41.8341C37.7228 42.0192 38.0783 42.2821 38.3607 42.623C38.6432 42.9541 38.8525 43.3583 38.9889 43.8355C39.135 44.3127 39.208 44.8386 39.208 45.4133C39.208 46.6501 38.9061 47.6046 38.3023 48.2766C37.7082 48.9388 36.8658 49.27 35.775 49.27C35.1906 49.27 34.6842 49.1774 34.2557 48.9924C33.8272 48.8073 33.4668 48.5493 33.1746 48.2181C32.8922 47.8773 32.6779 47.4682 32.5319 46.991C32.3955 46.5138 32.3273 45.9879 32.3273 45.4133ZM34.2849 45.4133C34.2849 45.7346 34.3141 46.0317 34.3725 46.3044C34.431 46.5771 34.5186 46.8157 34.6355 47.0202C34.7524 47.2247 34.9033 47.3854 35.0884 47.5023C35.2832 47.6094 35.512 47.663 35.775 47.663C36.2717 47.663 36.6418 47.4828 36.8852 47.1225C37.1287 46.7621 37.2505 46.1924 37.2505 45.4133C37.2505 44.7413 37.1385 44.2007 36.9145 43.7917C36.6905 43.3729 36.3106 43.1635 35.775 43.1635C35.3075 43.1635 34.9423 43.3388 34.6793 43.6894C34.4164 44.04 34.2849 44.6146 34.2849 45.4133ZM40.3564 45.4133C40.3564 44.1764 40.6583 43.2268 41.2621 42.5646C41.866 41.8926 42.7133 41.5566 43.8041 41.5566C44.3884 41.5566 44.8948 41.6491 45.3234 41.8341C45.7519 42.0192 46.1074 42.2821 46.3898 42.623C46.6722 42.9541 46.8816 43.3583 47.018 43.8355C47.1641 44.3127 47.2371 44.8386 47.2371 45.4133C47.2371 46.6501 46.9352 47.6046 46.3314 48.2766C45.7373 48.9388 44.8948 49.27 43.8041 49.27C43.2197 49.27 42.7133 49.1774 42.2848 48.9924C41.8562 48.8073 41.4959 48.5493 41.2037 48.2181C40.9213 47.8773 40.707 47.4682 40.5609 46.991C40.4246 46.5138 40.3564 45.9879 40.3564 45.4133ZM42.314 45.4133C42.314 45.7346 42.3432 46.0317 42.4016 46.3044C42.4601 46.5771 42.5477 46.8157 42.6646 47.0202C42.7814 47.2247 42.9324 47.3854 43.1174 47.5023C43.3122 47.6094 43.5411 47.663 43.8041 47.663C44.3008 47.663 44.6708 47.4828 44.9143 47.1225C45.1578 46.7621 45.2795 46.1924 45.2795 45.4133C45.2795 44.7413 45.1675 44.2007 44.9435 43.7917C44.7195 43.3729 44.3397 43.1635 43.8041 43.1635C43.3366 43.1635 42.9714 43.3388 42.7084 43.6894C42.4454 44.04 42.314 44.6146 42.314 45.4133ZM52.885 49.0654V45.0919C52.885 44.4199 52.8217 43.9426 52.695 43.6602C52.5684 43.3778 52.3055 43.2366 51.9062 43.2366C51.575 43.2366 51.3072 43.3291 51.1027 43.5141C50.8982 43.6894 50.7424 43.9183 50.6352 44.2007V49.0654H48.7361V41.7611H50.2116L50.4307 42.7253H50.4891C50.7131 42.4136 50.9956 42.1409 51.3364 41.9072C51.687 41.6734 52.135 41.5566 52.6804 41.5566C53.1479 41.5566 53.5277 41.654 53.8199 41.8487C54.1218 42.0338 54.3556 42.3503 54.5211 42.7983C54.7451 42.4185 55.0324 42.1166 55.383 41.8926C55.7337 41.6686 56.1573 41.5566 56.654 41.5566C57.063 41.5566 57.4088 41.6053 57.6912 41.7026C57.9834 41.8 58.2171 41.9705 58.3924 42.214C58.5775 42.4477 58.7138 42.7642 58.8015 43.1635C58.8891 43.5628 58.933 44.0693 58.933 44.6828V49.0654H57.0338V44.9604C57.0338 44.3858 56.9705 43.9573 56.8439 43.6748C56.727 43.3826 56.4592 43.2366 56.0404 43.2366C55.6996 43.2366 55.4269 43.3291 55.2224 43.5141C55.0276 43.6992 54.8815 43.9524 54.7841 44.2738V49.0654H52.885Z" fill="white"/>
<defs>
<clipPath id="clip0_319_1712">
<rect width="33.4783" height="23.1304" fill="white" transform="translate(13.261 10.9346)"/>
</clipPath>
</defs>
</svg>
