<svg width="44" height="44" viewBox="0 0 44 44" fill="none" xmlns="http://www.w3.org/2000/svg">
<rect x="0.5" y="0.5" width="43" height="43" rx="21.5" stroke="#5B5B5B"/>
<path d="M25.75 20.5L30.47 15.78C30.5749 15.6752 30.7085 15.6039 30.8539 15.575C30.9993 15.5462 31.15 15.561 31.2869 15.6177C31.4239 15.6744 31.541 15.7705 31.6234 15.8937C31.7058 16.0169 31.7499 16.1618 31.75 16.31V27.69C31.7499 27.8382 31.7058 27.9831 31.6234 28.1063C31.541 28.2295 31.4239 28.3256 31.2869 28.3823C31.15 28.439 30.9993 28.4538 30.8539 28.425C30.7085 28.3961 30.5749 28.3248 30.47 28.22L25.75 23.5M14.5 28.75H23.5C24.0967 28.75 24.669 28.5129 25.091 28.091C25.5129 27.669 25.75 27.0967 25.75 26.5V17.5C25.75 16.9033 25.5129 16.331 25.091 15.909C24.669 15.4871 24.0967 15.25 23.5 15.25H14.5C13.9033 15.25 13.331 15.4871 12.909 15.909C12.4871 16.331 12.25 16.9033 12.25 17.5V26.5C12.25 27.0967 12.4871 27.669 12.909 28.091C13.331 28.5129 13.9033 28.75 14.5 28.75Z" stroke="#5B5B5B" stroke-linecap="round" stroke-linejoin="round"/>
</svg>
