<svg width="14" height="18" viewBox="0 0 14 18" fill="none" xmlns="http://www.w3.org/2000/svg">
<path d="M13.25 11.375V9.1875C13.25 8.44158 12.9537 7.72621 12.4262 7.19876C11.8988 6.67132 11.1834 6.375 10.4375 6.375H9.1875C8.93886 6.375 8.7004 6.27623 8.52459 6.10041C8.34877 5.9246 8.25 5.68614 8.25 5.4375V4.1875C8.25 3.44158 7.95368 2.72621 7.42624 2.19876C6.89879 1.67132 6.18342 1.375 5.4375 1.375H3.875M8.23417 12.6092L9.5 13.875M8.23417 12.6092C8.43729 12.406 8.59855 12.165 8.70849 11.8996C8.81842 11.6342 8.875 11.3498 8.875 11.0625C8.875 10.4823 8.64453 9.92594 8.2343 9.5157C7.82406 9.10547 7.26766 8.875 6.6875 8.875C6.10734 8.875 5.55094 9.10547 5.1407 9.5157C4.73047 9.92594 4.5 10.4823 4.5 11.0625C4.5 11.3498 4.55658 11.6342 4.66651 11.8996C4.77645 12.165 4.93758 12.4062 5.1407 12.6093C5.34383 12.8124 5.58498 12.9736 5.85038 13.0835C6.11578 13.1934 6.40023 13.25 6.6875 13.25C6.97477 13.25 7.25922 13.1934 7.52462 13.0835C7.79002 12.9736 8.03104 12.8123 8.23417 12.6092ZM5.75 1.375H1.6875C1.17 1.375 0.75 1.795 0.75 2.3125V16.0625C0.75 16.58 1.17 17 1.6875 17H12.3125C12.83 17 13.25 16.58 13.25 16.0625V8.875C13.25 6.88588 12.4598 4.97822 11.0533 3.5717C9.64678 2.16518 7.73912 1.375 5.75 1.375Z" stroke="#363B44" stroke-width="1.25" stroke-linecap="round" stroke-linejoin="round"/>
</svg>
